<svg xmlns="http://www.w3.org/2000/svg" viewBox="20 20 321 321">
<path style="fill:none;stroke:#FFFFFF;stroke-width:10;stroke-miterlimit:10;" d="M 73.17,243.30 C 73.17,247.21 76.33,250.38 80.22,250.38 80.22,250.38 238.11,250.36 238.11,250.36 242.00,250.36 245.16,247.19 245.16,243.28 245.16,243.28 245.16,85.78 245.16,85.78 245.16,81.87 242.00,78.70 238.11,78.70 238.11,78.70 80.22,78.68 80.22,78.68 76.33,78.68 73.17,81.85 73.17,85.76 73.17,85.76 73.17,243.26 73.17,243.26 73.17,243.26 73.17,243.30 73.17,243.30 Z"/>
<path style="fill:#FFFFFF;" d="M 82.50,165.58 C 80.29,165.58 78.07,165.58 75.86,165.58 73.13,165.58 70.86,163.31 70.86,160.58 70.86,157.86 73.13,155.58 75.86,155.58 78.07,155.58 80.29,155.58 82.50,155.58 85.23,155.58 87.50,157.86 87.50,160.58 87.50,163.31 85.23,165.58 82.50,165.58 Z"/>
<path style="fill:none;stroke:#FFFFFF;stroke-width:10;stroke-miterlimit:10;" d="M 73.17,83.21 C 73.17,85.69 75.89,87.71 79.23,87.71 79.23,87.71 239.11,87.69 239.11,87.69 242.45,87.69 245.16,85.67 245.16,83.19 245.16,83.19 245.16,74.19 245.16,74.19 245.16,71.70 242.45,69.69 239.11,69.69 239.11,69.69 79.23,69.67 79.23,69.67 75.89,69.67 73.17,71.68 73.17,74.17 73.17,74.17 73.17,83.17 73.17,83.17 73.17,83.17 73.17,83.21 73.17,83.21 Z"/>
</svg>