<?xml version="1.0" encoding="iso-8859-1"?>
<!-- Generator: Adobe Illustrator 16.0.0, SVG Export Plug-In . SVG Version: 6.00 Build 0)  -->
<!DOCTYPE svg PUBLIC "-//W3C//DTD SVG 1.1//EN" "http://www.w3.org/Graphics/SVG/1.1/DTD/svg11.dtd">
<svg version="1.1" xmlns="http://www.w3.org/2000/svg" xmlns:xlink="http://www.w3.org/1999/xlink" x="0px" y="0px" width="361px"
	 height="361px" viewBox="0 0 361 361" style="enable-background:new 0 0 361 361;" xml:space="preserve">
<g id="fts_x5F_window_x5F_1w_x5F_open">
	<path style="fill:none;stroke:#FFFFFF;stroke-width:10;stroke-miterlimit:10;" d="M 93.17,263.30
           C 93.17,267.21 96.33,270.38 100.22,270.38
             100.22,270.38 258.11,270.41 258.11,270.41
             262.00,270.41 265.16,267.24 265.16,263.32
             265.16,263.32 265.16,105.82 265.16,105.82
             265.16,101.91 262.00,98.74 258.11,98.74
             258.11,98.74 100.22,98.72 100.22,98.72
             96.33,98.72 93.17,101.89 93.17,105.80
             93.17,105.80 93.17,263.30 93.17,263.30 Z"/>
	<g>
		<g>
			<path style="fill:#FFFFFF;" d="M 132.50,205.58
           C 130.29,205.58 128.07,205.58 125.86,205.58
             123.13,205.58 120.86,203.31 120.86,200.58
             120.86,197.86 123.13,195.58 125.86,195.58
             128.07,195.58 130.29,195.58 132.50,195.58
             135.23,195.58 137.50,197.86 137.50,200.58
             137.50,203.31 135.23,205.58 132.50,205.58
             132.50,205.58 132.50,205.58 132.50,205.58 Z"/>
		</g>
	</g>
	<path style="fill:none;stroke:#FFFFFF;stroke-width:10;stroke-miterlimit:10;" d="M 93.17,103.21
           C 93.17,105.69 95.89,107.71 99.23,107.71
             99.23,107.71 259.11,107.73 259.11,107.73
             262.45,107.73 265.16,105.71 265.16,103.23
             265.16,103.23 265.16,94.23 265.16,94.23
             265.16,91.74 262.45,89.73 259.11,89.73
             259.11,89.73 99.23,89.71 99.23,89.71
             95.89,89.71 93.17,91.72 93.17,94.21
             93.17,94.21 93.17,103.21 93.17,103.21 Z"/>
	<path style="display:none;fill:none;stroke:#FFFFFF;stroke-width:10;stroke-miterlimit:10;" d="M 96.27,265.18
           C 95.68,268.06 97.90,270.41 101.21,270.41
             101.21,270.41 258.54,270.41 258.54,270.41
             261.86,270.41 265.02,268.06 265.60,265.18
             265.60,265.18 286.76,130.63 286.76,130.63
             287.34,127.75 285.13,125.40 281.82,125.40
             281.82,125.40 124.48,125.40 124.48,125.40
             121.17,125.40 118.01,127.74 117.43,130.63
             117.43,130.63 96.27,265.18 96.27,265.18 Z"/>
	<g>
		<g>
			<path style="fill:#FFFFFF;" d="M 128.17,280.90
           C 128.51,284.26 146.99,280.12 149.09,279.84
             164.12,277.86 179.14,275.88 194.17,273.90
             209.19,271.92 224.22,269.94 239.24,267.96
             244.07,267.33 248.91,266.69 253.75,266.05
             255.20,265.86 259.95,266.00 260.16,263.91
             260.78,257.75 260.16,251.21 260.16,245.03
             260.16,230.53 260.16,216.03 260.16,201.53
             260.16,174.17 260.16,146.81 260.16,119.45
             260.16,117.74 260.16,116.03 260.16,114.32
             260.16,111.77 254.98,113.31 253.75,113.47
             241.93,115.03 230.12,116.58 218.31,118.14
             190.40,121.82 162.49,125.50 134.59,129.17
             133.13,129.37 128.39,129.23 128.17,131.32
             128.00,132.99 128.17,134.77 128.17,136.45
             128.17,147.67 128.17,158.89 128.17,170.10
             128.17,200.74 128.17,231.39 128.17,262.03
             128.17,268.32 128.17,274.61 128.17,280.90
             128.17,287.35 118.17,287.35 118.17,280.90
             118.17,232.75 118.17,184.60 118.17,136.45
             118.17,134.74 118.17,133.03 118.17,131.32
             118.17,123.70 124.31,120.53 130.85,119.67
             140.36,118.41 149.87,117.16 159.38,115.91
             188.85,112.02 218.32,108.14 247.79,104.25
             251.09,103.82 254.39,103.38 257.69,102.95
             264.24,102.09 270.16,107.85 270.16,114.33
             270.16,120.85 270.16,127.37 270.16,133.89
             270.16,164.60 270.16,195.30 270.16,226.01
             270.16,237.06 270.16,248.11 270.16,259.16
             270.16,261.18 270.23,263.20 270.03,265.21
             269.31,272.33 263.42,274.78 257.27,275.59
             231.66,278.96 206.05,282.34 180.44,285.71
             167.14,287.47 153.84,289.22 140.55,290.97
             137.31,291.40 134.08,291.82 130.85,292.25
             123.79,293.18 118.84,287.47 118.18,280.90
             117.53,274.49 127.53,274.55 128.17,280.90 Z"/>
		</g>
	</g>
</g>
<g id="Ebene_1">
</g>
</svg>