<?xml version="1.0" encoding="iso-8859-1"?>
<!-- Generator: Adobe Illustrator 16.0.0, SVG Export Plug-In . SVG Version: 6.00 Build 0)  -->
<!DOCTYPE svg PUBLIC "-//W3C//DTD SVG 1.1//EN" "http://www.w3.org/Graphics/SVG/1.1/DTD/svg11.dtd">
<svg version="1.1" xmlns="http://www.w3.org/2000/svg" xmlns:xlink="http://www.w3.org/1999/xlink" x="0px" y="0px" width="361px"
	 height="361px" viewBox="0 0 361 361" style="enable-background:new 0 0 361 361;" xml:space="preserve">
<g id="fts_x5F_window_x5F_1w_x5F_tilt">
	<path style="fill:none;stroke:#FFFFFF;stroke-width:10;stroke-miterlimit:10;" d="M 93.17,263.30
           C 93.17,267.21 96.33,270.38 100.22,270.38
             100.22,270.38 258.11,270.41 258.11,270.41
             262.00,270.41 265.16,267.24 265.16,263.32
             265.16,263.32 265.16,105.82 265.16,105.82
             265.16,101.91 262.00,98.74 258.11,98.74
             258.11,98.74 100.22,98.72 100.22,98.72
             96.33,98.72 93.17,101.89 93.17,105.80
             93.17,105.80 93.17,263.30 93.17,263.30 Z"/>
	<path style="fill:none;stroke:#FFFFFF;stroke-width:10;stroke-miterlimit:10;" d="M 93.17,103.21
           C 93.17,105.69 95.89,107.71 99.23,107.71
             99.23,107.71 259.11,107.73 259.11,107.73
             262.45,107.73 265.16,105.71 265.16,103.23
             265.16,103.23 265.16,94.23 265.16,94.23
             265.16,91.74 262.45,89.73 259.11,89.73
             259.11,89.73 99.23,89.71 99.23,89.71
             95.89,89.71 93.17,91.72 93.17,94.21
             93.17,94.21 93.17,103.21 93.17,103.21 Z"/>
	<path style="fill:none;stroke:#FFFFFF;stroke-width:10;stroke-miterlimit:10;" d="M 95.27,265.18
           C 94.68,268.06 96.90,270.41 100.21,270.41
             100.21,270.41 257.54,270.41 257.54,270.41
             260.86,270.41 264.02,268.06 264.60,265.18
             264.60,265.18 285.76,130.63 285.76,130.63
             286.34,127.75 284.13,125.40 280.82,125.40
             280.82,125.40 123.48,125.40 123.48,125.40
             120.17,125.40 117.01,127.74 116.43,130.63
             116.43,130.63 95.27,265.18 95.27,265.18 Z"/>
	<g>
		<g>
			<path style="fill:#FFFFFF;" d="M 113.81,199.67
           C 111.59,199.67 109.38,199.67 107.17,199.67
             104.44,199.67 102.17,197.39 102.17,194.67
             102.17,191.94 104.44,189.67 107.17,189.67
             109.38,189.67 111.59,189.67 113.81,189.67
             116.53,189.67 118.81,191.94 118.81,194.67
             118.81,197.39 116.53,199.67 113.81,199.67
             113.81,199.67 113.81,199.67 113.81,199.67 Z"/>
		</g>
	</g>
</g>
<g id="Ebene_1">
</g>
</svg>
